<svg width="200" height="194" viewBox="0 0 200 194" fill="none" xmlns="http://www.w3.org/2000/svg">
<path d="M25.1939 103.903L50.5388 99.8944C50.5388 99.4418 50.5388 98.9892 50.5388 98.5043C50.5388 94.4634 51.0237 90.5194 51.9288 86.7694L38.5129 88.903C42.1336 65.4979 58.847 46.3923 80.8944 39.2802V52.8578C84.903 51.1767 89.1702 50.0129 93.6314 49.431V23.7629C55.1939 26.9957 25 59.2263 25 98.5043C25 100.315 25.0646 102.125 25.1939 103.903Z" fill="white"/>
<path d="M174.806 103.903L149.461 99.8944C149.461 99.4418 149.461 98.9892 149.461 98.5043C149.461 94.4634 148.976 90.5194 148.071 86.7694L161.487 88.903C157.866 65.4979 141.153 46.3923 119.106 39.2802V52.8578C115.097 51.1767 110.83 50.0129 106.369 49.431V23.7629C144.806 26.9957 175 59.2263 175 98.5043C175 100.315 174.935 102.125 174.806 103.903Z" fill="white"/>
<path d="M75.0108 169.237L100 156.5L124.989 169.237C148.588 160.897 166.756 141.08 172.834 116.478L160.194 114.474C155.377 132.675 142.511 147.61 125.636 155.239L100 142.179L74.3642 155.239C57.4892 147.61 44.6228 132.675 39.806 114.474L27.1659 116.478C33.2112 141.08 51.4116 160.897 75.0108 169.237Z" fill="white"/>
<path fill-rule="evenodd" clip-rule="evenodd" d="M76.2392 89.1293V105.584H81.3793V99.6357H85.0323L86.3578 96.0474H81.3793V92.7176H87.5539L88.8793 89.1293H76.2392Z" fill="white"/>
<path d="M95.5388 89.1293H90.431V105.552H95.5388V89.1293Z" fill="white"/>
<path fill-rule="evenodd" clip-rule="evenodd" d="M99.0625 89.1293V105.584H104.17V99.6357H107.856L109.181 96.0474H104.17V92.7176H110.377L111.67 89.1293H99.0625Z" fill="white"/>
<path fill-rule="evenodd" clip-rule="evenodd" d="M126.315 105.584H121.142L120.463 103.386H114.677L114.03 105.584H108.987L114.968 89.1616H120.269L126.25 105.584H126.315ZM119.655 100.218L117.619 93.3642L115.647 100.218H119.655Z" fill="white"/>
<path d="M122.119 145.365L127.278 142.161L128.121 143.51L126.401 144.589L129.2 149.107L127.48 150.153L124.682 145.634L122.962 146.713L122.119 145.365ZM128.054 141.689L130.11 140.408L133.583 143.544L132.336 139.025L134.359 137.778L138.709 143.207L137.056 144.218L134.46 140.711L135.607 145.128L134.089 146.073L130.65 143.072L132.572 147.017L131.021 147.961L128.087 141.656L128.054 141.689Z" fill="white"/>
</svg>
